<?xml version="1.0" standalone="no"?>
<!DOCTYPE svg PUBLIC "-//W3C//DTD SVG 20010904//EN"
 "http://www.w3.org/TR/2001/REC-SVG-20010904/DTD/svg10.dtd">
<svg version="1.0" xmlns="http://www.w3.org/2000/svg"
 width="763.000000pt" height="452.000000pt" viewBox="0 0 763.000000 452.000000"
 preserveAspectRatio="xMidYMid meet">
<metadata>
Created by potrace 1.16, written by Peter Selinger 2001-2019
</metadata>
<g transform="translate(0.000000,452.000000) scale(0.031792,-0.024419)"
fill="#000000" stroke="none">
<path d="M13825 18398 c-211 -211 -575 -645 -575 -685 0 -6 -7 -17 -16 -24
-40 -33 -174 -265 -261 -454 -101 -218 -178 -454 -218 -672 -11 -58 -21 -90
-29 -88 -11 4 -110 23 -466 90 -107 20 -226 43 -265 50 -38 7 -71 13 -72 12 0
-1 -4 -22 -8 -47 l-7 -45 174 -34 c95 -18 256 -49 358 -68 102 -19 208 -39
235 -44 l50 -9 -9 -118 c-23 -286 42 -624 173 -907 72 -154 199 -358 290 -462
20 -23 56 -67 81 -98 56 -70 417 -425 433 -425 7 0 39 -25 72 -55 33 -30 92
-78 130 -106 39 -28 97 -70 130 -94 173 -128 226 -164 285 -200 36 -21 84 -53
107 -69 24 -17 72 -49 108 -71 36 -22 135 -85 220 -140 84 -55 224 -143 310
-195 177 -108 284 -176 472 -302 73 -48 135 -88 138 -88 12 0 229 -156 404
-290 68 -52 136 -104 150 -115 209 -158 481 -405 816 -740 186 -187 268 -278
405 -454 30 -39 58 -71 62 -71 4 0 13 -11 20 -24 7 -13 29 -44 49 -68 20 -23
94 -128 165 -233 70 -104 146 -217 168 -249 54 -80 301 -573 355 -711 181
-455 276 -862 312 -1335 16 -211 6 -634 -21 -850 -11 -91 -25 -176 -29 -190
-13 -34 -19 -65 -31 -151 -15 -108 -139 -542 -167 -587 -8 -13 -12 -26 -9 -29
7 -7 -111 -333 -143 -393 -10 -19 -33 -64 -51 -99 -90 -182 -315 -554 -331
-548 -4 1 -55 56 -113 122 -59 66 -119 131 -134 144 -15 13 -39 40 -55 60 -16
20 -64 74 -106 121 -43 47 -90 100 -105 118 -15 17 -31 32 -36 32 -4 0 -52
-53 -106 -117 -298 -352 -520 -611 -544 -633 -29 -27 -309 -351 -375 -435 -22
-27 -49 -59 -60 -70 -36 -36 -151 -169 -168 -195 -10 -14 -37 -45 -61 -70 -62
-65 -126 -140 -126 -149 0 -9 249 -285 261 -289 5 -2 29 -29 53 -60 l43 -57
-26 -21 c-107 -86 -663 -360 -1052 -519 -356 -146 -837 -300 -1211 -389 -25
-6 -30 -2 -52 43 -60 117 -210 279 -341 367 -33 23 -130 85 -215 139 -231 146
-447 316 -544 428 -43 50 -73 61 -44 15 8 -13 58 -142 112 -288 54 -146 118
-319 143 -385 25 -66 60 -160 78 -210 18 -49 46 -127 63 -172 l31 -82 -37 -6
c-255 -40 -560 -64 -935 -73 -265 -7 -268 -7 -263 13 3 11 15 69 27 129 12 61
28 128 35 150 11 30 12 41 2 47 -14 9 -78 22 -83 17 -2 -2 -10 -39 -18 -83 -9
-44 -23 -107 -32 -140 -9 -33 -21 -77 -26 -97 l-10 -38 -92 0 c-202 0 -713 40
-1042 80 -178 22 -513 84 -740 136 -381 88 -509 122 -838 225 -103 32 -192 59
-197 59 -5 0 -33 11 -62 24 -29 13 -71 29 -93 36 -36 11 -148 54 -410 157 -49
20 -94 39 -100 43 -5 4 -64 31 -130 60 -123 54 -418 201 -535 266 -36 20 -103
57 -150 82 -211 113 -542 333 -673 447 l-46 40 116 130 c63 72 149 170 190
218 l76 89 -31 31 -31 30 -45 -49 c-25 -27 -112 -124 -193 -216 -81 -92 -150
-167 -153 -167 -11 -2 -199 176 -281 265 -115 124 -419 501 -419 519 0 14 44
64 52 59 4 -3 8 -1 8 4 0 5 14 12 30 16 127 25 274 155 365 321 73 134 147
369 185 585 32 186 90 320 175 406 47 47 50 53 38 70 -8 11 -18 25 -23 33 -6
12 -13 10 -36 -8 -35 -28 -441 -316 -600 -426 -63 -44 -125 -89 -138 -100 -12
-11 -42 -33 -67 -50 -24 -16 -120 -84 -214 -150 -93 -67 -175 -124 -182 -128
-7 -4 -26 13 -48 45 -39 53 -211 331 -250 403 -58 106 -323 524 -403 635 -34
47 -67 96 -74 110 -30 59 -187 275 -357 490 -166 210 -392 442 -591 609 -151
127 -173 144 -316 240 l-121 81 -7 52 c-17 126 -136 410 -206 490 -17 18 -30
37 -30 41 0 15 -105 120 -195 195 -139 116 -323 192 -463 192 l-55 0 7 53 c10
80 53 347 78 490 l23 129 65 35 c212 114 513 312 666 439 272 225 382 387 572
844 108 261 175 501 203 725 14 111 14 530 0 735 -10 134 -29 202 -77 271 -53
77 -120 94 -230 60 -119 -37 -250 -127 -459 -318 -167 -152 -277 -278 -377
-433 -127 -195 -221 -396 -283 -605 -15 -49 -36 -117 -46 -151 -24 -81 -85
-426 -95 -539 -2 -16 -8 -77 -13 -135 -6 -58 -10 -134 -11 -170 0 -81 -22
-125 -75 -155 -22 -12 -80 -43 -130 -70 -531 -282 -773 -441 -992 -649 -203
-192 -404 -486 -494 -723 l-24 -63 -226 0 c-124 0 -274 -3 -332 -7 l-107 -6 0
-60 0 -59 28 6 c15 3 156 9 314 13 l287 6 -14 -46 c-58 -193 -81 -524 -50
-721 9 -60 19 -114 21 -121 4 -9 -32 -14 -138 -19 -132 -6 -372 -30 -425 -41
-21 -5 -23 -11 -23 -60 0 -52 1 -55 23 -50 39 9 311 34 429 40 62 3 124 8 138
10 23 3 28 -2 49 -58 56 -151 122 -291 172 -364 16 -23 29 -45 29 -49 0 -10
68 -99 127 -166 42 -49 157 -151 209 -186 16 -10 -8 -11 -131 -6 -82 3 -195 1
-250 -5 -55 -5 -185 -18 -290 -27 -104 -9 -260 -29 -345 -43 l-155 -26 -3 -53
c-2 -38 1 -52 10 -52 7 0 59 9 115 19 308 59 623 84 977 79 276 -5 282 -5 337
-30 68 -32 287 -88 342 -88 l40 0 -6 -152 c-4 -84 -11 -191 -17 -238 -12 -89
-58 -301 -69 -311 -3 -4 -51 0 -106 7 -179 25 -162 18 -169 72 -12 90 -84 209
-176 289 -19 17 -64 46 -100 64 -64 33 -67 34 -190 34 -106 0 -136 -4 -195
-24 -85 -29 -135 -60 -189 -116 -49 -50 -120 -185 -145 -274 l-18 -65 -179
-37 c-98 -20 -198 -42 -221 -48 l-43 -12 0 -56 c0 -52 1 -55 22 -50 13 2 95
20 183 40 237 52 228 51 222 27 -8 -31 11 -168 34 -240 58 -182 200 -340 367
-406 24 -9 41 -18 40 -19 -2 -2 -85 -13 -186 -24 -185 -22 -347 -52 -502 -95
-47 -13 -106 -29 -133 -36 l-47 -13 0 -53 c0 -62 -1 -62 90 -34 346 107 774
169 1082 156 584 -23 1037 -180 1472 -508 101 -77 350 -325 440 -438 164 -208
328 -474 485 -788 50 -100 291 -619 291 -626 0 -16 234 -492 304 -621 361
-658 811 -1200 1374 -1653 142 -114 385 -288 487 -348 11 -7 81 -49 155 -94
138 -83 528 -280 680 -343 713 -296 1357 -450 2245 -538 172 -18 303 -22 730
-26 540 -5 705 0 1120 38 762 68 1752 258 2563 492 l153 44 38 -19 c179 -89
472 4 587 187 24 37 38 48 89 66 33 11 94 34 135 49 41 16 118 44 170 63 161
59 610 239 763 306 63 27 65 27 75 -11 11 -42 32 -49 32 -9 0 51 16 78 53 90
19 7 108 46 198 87 90 42 205 94 254 117 182 83 747 370 905 459 349 195 336
188 495 283 172 102 508 314 617 390 48 33 124 85 168 115 45 30 100 69 123
86 431 319 521 389 772 603 603 514 1095 1055 1479 1623 440 653 681 1232 812
1954 2 14 17 25 44 34 83 27 162 119 200 231 19 55 22 77 16 164 -3 60 -14
124 -26 159 -23 69 -79 146 -131 182 -45 31 -46 37 -55 318 l-6 210 39 -29
c107 -81 145 -113 220 -187 46 -45 85 -79 88 -77 2 3 -24 48 -58 100 -40 60
-106 138 -185 219 -123 124 -124 125 -133 185 -17 107 -99 507 -125 610 -36
141 -112 409 -135 478 -11 31 -22 65 -24 75 -8 38 -76 222 -104 282 -17 36
-31 70 -31 76 0 12 -87 223 -138 336 l-31 68 52 33 c29 19 64 40 77 47 14 7
41 26 60 42 19 15 41 28 48 28 8 0 26 8 40 19 26 18 294 182 492 301 52 32
145 88 205 125 61 37 155 95 210 128 55 33 123 74 150 92 28 17 91 56 140 85
50 30 134 82 188 117 l98 64 -49 62 c-26 34 -65 85 -85 112 -21 28 -65 84 -98
125 -55 68 -101 127 -299 381 -36 45 -72 90 -81 98 -8 9 -26 32 -40 51 -24 36
-188 241 -199 250 -3 3 -17 21 -30 40 -14 19 -72 94 -130 166 -58 72 -117 147
-132 165 -36 47 -81 102 -158 197 -36 44 -105 133 -155 197 -192 250 -322 405
-336 405 -5 0 -71 -37 -146 -82 -75 -46 -153 -92 -172 -104 -126 -74 -279
-170 -296 -184 -11 -9 -27 -19 -36 -22 -8 -3 -98 -57 -200 -118 -101 -62 -227
-139 -279 -170 -120 -72 -312 -190 -325 -199 -5 -4 -31 -20 -57 -34 l-46 -27
-204 238 c-434 504 -626 761 -817 1091 -96 166 -135 252 -119 262 61 37 458
338 458 347 -1 4 -12 20 -25 37 -23 28 -26 29 -57 16 -105 -43 -169 -53 -328
-48 -167 5 -194 11 -197 42 -1 11 -10 69 -19 128 -15 105 -15 300 1 402 9 60
45 187 59 210 7 11 19 38 26 60 7 22 26 63 43 90 16 28 38 65 48 83 88 155
471 541 640 644 30 18 57 37 60 41 3 5 17 14 30 21 13 7 73 41 134 76 427 247
1003 426 1560 485 396 42 703 42 1176 0 742 -65 1514 -243 2097 -481 75 -31
143 -58 150 -61 9 -4 12 11 12 55 l0 60 -154 61 c-285 112 -666 229 -956 294
-264 59 -310 68 -509 101 -193 32 -545 76 -739 92 l-84 7 49 17 c139 49 254
155 306 282 20 49 22 76 27 333 l5 280 208 -17 c420 -34 892 -110 1292 -208
181 -44 493 -128 538 -145 15 -6 17 0 17 52 l0 59 -147 42 c-577 164 -1214
278 -1763 317 -47 3 -100 8 -117 11 l-33 5 0 144 0 145 -50 0 -50 0 0 -142 0
-143 -543 0 c-366 0 -582 -4 -667 -13 -164 -17 -505 -61 -552 -71 l-38 -9 0
189 0 189 -45 0 -45 0 -2 -197 -3 -197 -45 -8 c-25 -5 -106 -22 -180 -39 -745
-168 -1394 -463 -1935 -880 -130 -100 -405 -361 -452 -430 -10 -13 -40 -52
-68 -86 -28 -34 -71 -98 -95 -143 -25 -44 -48 -80 -51 -80 -9 0 -221 225 -261
278 -18 23 -35 42 -39 42 -6 0 11 -90 31 -155 10 -34 7 -339 -4 -371 l-7 -20
-47 23 c-36 17 -67 23 -127 25 -69 2 -87 -2 -130 -24 -60 -31 -95 -67 -129
-132 -33 -62 -36 -177 -7 -242 83 -182 325 -230 464 -91 38 38 40 39 33 13 -9
-37 -26 -283 -21 -299 2 -6 6 -57 9 -112 6 -135 32 -325 63 -465 28 -125 77
-295 93 -322 27 -47 -5 -93 -72 -100 -123 -14 -256 -118 -321 -250 -33 -68
-67 -189 -67 -237 0 -33 18 -24 25 12 18 79 78 182 145 246 47 46 141 100 193
111 29 6 78 10 111 8 l58 -3 63 -146 c34 -80 71 -161 83 -180 27 -44 53 -122
44 -130 -17 -15 -483 -359 -486 -359 -2 0 -6 26 -9 58 -3 36 -18 85 -41 134
-47 98 -118 166 -236 222 l-85 41 -121 0 -121 0 -29 49 c-16 27 -34 54 -39 60
-6 6 -45 81 -87 166 -76 154 -130 290 -143 364 -3 21 -12 52 -20 70 -7 17 -23
84 -35 149 -12 65 -24 125 -27 134 -5 13 1 14 38 8 24 -4 51 -11 59 -15 8 -4
96 -22 195 -39 99 -18 243 -45 320 -61 239 -49 315 -63 320 -59 2 3 8 23 13
46 l10 42 -52 11 c-28 6 -89 16 -136 22 -47 5 -89 13 -95 18 -10 8 -148 34
-240 46 -66 8 -444 80 -449 85 -2 2 -10 58 -17 124 -14 141 -5 570 14 653 l12
52 56 0 c112 0 229 86 290 213 82 174 56 367 -71 518 l-38 46 47 89 c74 138
84 156 119 207 l33 47 32 -38 c18 -22 46 -58 62 -81 54 -75 63 -86 70 -79 4 4
-20 63 -54 132 -34 69 -61 129 -61 132 0 29 294 366 401 459 238 206 328 277
518 409 127 87 170 113 149 90 -40 -45 -71 -137 -72 -209 -3 -348 435 -462
715 -185 72 71 113 144 129 229 5 29 10 172 10 317 l0 264 -141 0 -142 0 -131
-69 c-170 -89 -329 -182 -491 -289 -149 -97 -395 -280 -395 -293 0 -5 -5 -9
-11 -9 -36 0 -364 -322 -523 -513 l-88 -107 -28 38 c-96 131 -274 271 -438
342 -149 66 -236 84 -397 83 -77 0 -161 -5 -187 -10 -56 -12 -57 -15 30 88
107 126 368 380 567 550 21 19 47 41 56 49 10 8 52 42 94 75 l77 60 -81 3
c-91 3 -91 3 -158 -55 -26 -23 -102 -89 -168 -146 -66 -57 -132 -117 -147
-133 -14 -16 -74 -76 -133 -134 -58 -58 -162 -171 -231 -251 l-125 -145 -92
-14 c-62 -10 -185 -14 -374 -15 -156 0 -283 -2 -283 -5 0 -6 29 -21 215 -120
72 -38 171 -90 220 -117 102 -54 100 -42 34 -143 -73 -111 -193 -360 -255
-525 -66 -177 -125 -398 -145 -544 -16 -110 -14 -109 -65 -52 -51 57 -128 105
-194 121 -43 10 -150 31 -520 100 -91 17 -232 44 -315 60 -82 15 -192 36 -243
46 l-94 17 7 46 c45 308 204 717 401 1030 32 52 68 109 79 126 39 63 194 263
300 389 69 82 214 229 363 369 l104 97 -82 0 -82 0 -113 -112z m4225 -54 l0
-126 -22 16 c-61 44 -133 69 -217 75 l-85 6 153 78 c84 42 157 77 162 77 5 0
9 -57 9 -126z m3728 -230 l62 -6 0 -124 c0 -68 -2 -124 -5 -124 -2 0 -24 14
-47 30 -56 39 -170 64 -253 54 -130 -15 -243 -72 -333 -169 -63 -68 -98 -137
-114 -224 -23 -122 47 -264 158 -321 l49 -25 -240 -2 c-338 -3 -655 -36 -945
-99 -63 -13 -122 -26 -131 -28 -11 -2 -6 15 20 63 l36 66 5 410 c4 354 7 410
20 412 8 1 74 11 145 22 226 35 590 67 860 75 145 4 633 -3 713 -10z m-1828
-346 c0 -229 -1 -240 -17 -226 -39 35 -125 70 -188 78 -100 12 -184 -2 -278
-48 -109 -53 -184 -122 -232 -214 -34 -63 -39 -84 -43 -154 -3 -47 1 -96 7
-117 20 -60 69 -123 126 -162 l54 -38 -137 -63 c-198 -90 -421 -215 -457 -254
-10 -11 -23 -20 -30 -20 -28 0 -312 -237 -432 -361 -134 -139 -283 -329 -283
-361 0 -6 -11 -26 -25 -44 -14 -18 -25 -38 -25 -45 0 -8 -6 -6 -18 4 -10 10
-23 17 -29 17 -6 0 -25 13 -42 29 -17 16 -86 73 -153 127 -68 54 -161 130
-208 169 -47 39 -103 83 -125 99 -22 16 -44 34 -50 40 -5 6 -26 24 -45 40 -19
16 -55 47 -79 69 l-43 40 17 35 c19 40 142 215 217 308 65 81 255 254 469 427
19 15 46 35 60 45 15 9 60 40 100 68 442 306 1042 559 1654 698 146 33 226 52
233 55 1 1 2 -108 2 -241z m-4440 -248 c36 -7 103 -25 150 -42 47 -16 93 -31
103 -33 25 -5 123 -51 139 -64 14 -12 160 -119 168 -124 3 -1 27 -26 54 -54
l48 -51 -38 -64 c-21 -34 -41 -65 -44 -68 -8 -7 -71 -117 -105 -182 l-30 -57
-95 51 c-52 28 -169 89 -260 135 -91 47 -172 90 -180 97 -8 7 -46 27 -85 45
-38 18 -90 45 -115 61 -25 15 -90 51 -145 79 -55 29 -103 56 -107 59 -11 11
60 95 117 140 63 49 136 74 245 81 93 7 87 7 180 -9z m-413 -384 c318 -164
465 -242 578 -305 l88 -49 -37 -17 c-91 -43 -173 -148 -202 -259 -21 -76 -18
-212 6 -288 23 -77 80 -160 137 -204 23 -18 40 -34 38 -36 -7 -7 -35 -352 -35
-437 0 -48 4 -123 10 -167 5 -43 11 -113 13 -154 l4 -76 -61 13 c-34 7 -96 17
-138 22 -43 6 -99 17 -125 24 -40 12 -152 34 -424 83 l-25 5 37 39 c21 21 52
69 70 106 32 64 33 73 34 178 0 96 -4 121 -28 186 -49 133 -146 238 -259 281
-77 29 -182 24 -251 -11 -60 -30 -121 -95 -153 -163 -19 -40 -24 -45 -20 -22
3 17 8 62 11 100 34 364 184 812 389 1158 25 43 46 80 46 84 0 6 31 43 36 43
2 0 119 -60 261 -134z m-2067 -815 c85 -16 232 -44 325 -61 251 -47 368 -70
384 -75 9 -4 3 -17 -22 -45 -124 -137 -139 -343 -40 -533 116 -220 360 -300
526 -173 l45 34 6 -36 c3 -20 10 -71 15 -112 18 -136 95 -388 156 -510 18 -36
45 -91 61 -124 61 -123 235 -382 308 -458 17 -18 53 -61 79 -96 99 -129 506
-518 637 -609 25 -17 56 -43 70 -58 14 -15 58 -52 97 -82 40 -29 83 -63 96
-76 50 -47 462 -357 474 -357 5 0 27 -17 49 -37 23 -21 66 -56 98 -78 96 -68
218 -164 413 -326 276 -230 310 -262 317 -307 7 -36 36 -121 59 -172 21 -43
139 -151 202 -182 64 -33 144 -58 185 -58 26 0 74 -44 165 -150 21 -25 84 -94
139 -154 101 -109 346 -408 346 -422 0 -4 26 -41 58 -82 107 -140 133 -177
143 -200 5 -12 30 -55 57 -95 146 -218 290 -488 434 -810 144 -326 240 -641
283 -932 8 -60 20 -130 26 -155 11 -51 13 -76 29 -320 13 -184 6 -626 -10
-690 -5 -19 -18 -105 -30 -190 -25 -185 -36 -245 -60 -325 -10 -33 -33 -114
-51 -180 -36 -133 -99 -330 -127 -394 l-17 -41 -135 88 c-74 48 -161 102 -193
120 -31 18 -77 47 -101 65 -24 17 -51 37 -61 43 -17 9 -16 20 28 175 53 187
96 365 101 418 2 20 16 106 30 191 27 164 40 270 57 465 14 150 5 542 -15 730
-41 372 -141 772 -283 1135 -63 158 -185 420 -225 483 -19 29 -49 84 -68 122
-44 93 -199 342 -272 435 -32 42 -58 80 -58 84 0 12 -72 109 -92 124 -10 7
-18 18 -18 24 0 12 -45 71 -119 153 -30 33 -73 86 -96 118 -103 141 -555 597
-815 823 -25 21 -50 44 -56 49 -54 48 -75 65 -80 65 -3 0 -31 23 -62 51 -30
28 -80 67 -111 88 -31 21 -71 52 -89 69 -18 17 -49 41 -68 52 -18 12 -34 26
-34 31 0 5 -5 9 -11 9 -6 0 -31 17 -55 39 -47 41 -357 261 -368 261 -8 0 -139
89 -146 99 -4 7 -35 27 -190 126 -138 89 -343 215 -349 215 -8 0 -154 90 -161
100 -3 3 -34 24 -70 45 -36 21 -83 50 -105 65 -22 15 -56 35 -75 44 -19 9 -47
27 -63 40 -15 13 -71 52 -125 86 -167 108 -520 364 -593 431 -14 13 -61 55
-105 93 -147 129 -385 377 -459 479 -228 311 -351 584 -401 893 -18 110 -26
447 -11 471 4 6 15 9 25 7 9 -2 87 -17 172 -33z m4125 -81 c4 -6 24 -22 45
-35 21 -13 51 -37 67 -53 15 -16 114 -108 218 -204 105 -95 243 -227 307 -292
l118 -117 -16 -62 c-8 -34 -19 -75 -24 -92 -31 -105 -28 -404 6 -550 5 -19 -1
-20 -156 -22 -89 -1 -194 -7 -233 -13 -101 -17 -226 -64 -292 -111 -31 -21
-57 -39 -59 -39 -10 0 -98 336 -132 505 -21 104 -29 409 -15 535 20 177 67
369 120 497 26 63 34 72 46 53z m-2734 -811 c48 -64 125 -135 172 -157 27 -13
92 -31 145 -42 234 -46 421 -79 475 -85 32 -3 77 -12 100 -20 23 -8 92 -23
152 -34 61 -10 140 -25 176 -32 l67 -12 21 -111 c25 -128 51 -222 96 -356 42
-123 132 -349 151 -377 8 -12 39 -68 69 -124 l56 -101 -41 -35 c-22 -20 -53
-58 -68 -87 -23 -44 -27 -63 -27 -141 0 -80 3 -97 32 -157 62 -132 214 -245
364 -269 52 -9 86 -8 164 4 l99 16 281 -282 c310 -312 426 -424 468 -451 30
-20 35 -36 12 -36 -8 0 -40 -10 -71 -21 -64 -24 -121 -71 -149 -122 l-18 -35
-126 107 c-69 59 -144 121 -166 138 -22 17 -58 47 -79 67 -22 20 -44 36 -49
36 -5 0 -48 33 -95 73 -48 40 -118 95 -157 121 -38 26 -77 55 -85 64 -16 18
-305 235 -351 264 -14 9 -33 24 -42 33 -9 8 -105 85 -214 170 -200 156 -228
180 -450 384 -127 117 -429 426 -446 458 -6 10 -32 45 -57 78 -76 98 -177 251
-227 344 -25 47 -53 94 -60 103 -8 9 -19 31 -23 50 -5 18 -25 75 -45 126 -60
154 -110 369 -119 507 l-6 90 23 -57 c13 -31 35 -71 48 -89z m3169 -748 c19
-6 67 -12 107 -15 70 -6 213 -53 240 -79 15 -15 54 -118 48 -127 -2 -4 -29
-13 -59 -20 -67 -16 -281 -8 -426 16 -52 8 -144 21 -203 28 -59 8 -109 15
-111 17 -5 6 -26 71 -26 79 0 10 106 65 155 80 80 26 217 36 275 21z m-246
-356 c82 -32 270 -126 290 -145 4 -4 -25 -31 -65 -59 -41 -27 -94 -65 -118
-83 -42 -31 -44 -32 -58 -13 -8 11 -22 36 -30 55 -8 19 -39 85 -69 147 -53
111 -61 133 -46 133 4 0 47 -16 96 -35z m769 -115 c172 -337 466 -741 882
-1215 39 -44 96 -110 127 -146 l58 -66 -113 -68 c-61 -37 -114 -71 -117 -75
-3 -4 -18 -13 -35 -22 -16 -8 -102 -58 -189 -112 -87 -53 -160 -95 -161 -94
-1 2 -55 65 -121 142 -65 76 -128 150 -139 165 -10 14 -51 64 -91 111 -88 106
-318 399 -402 513 -119 163 -335 502 -357 560 -5 11 36 47 157 138 90 67 175
134 189 147 24 22 232 170 236 168 1 -1 35 -66 76 -146z m-703 -452 c85 -148
233 -370 358 -538 134 -179 354 -456 386 -485 12 -11 29 -31 38 -45 9 -14 75
-94 148 -179 l133 -153 -34 -29 c-19 -16 -38 -29 -43 -29 -10 0 -159 -89 -166
-100 -3 -4 -41 -26 -85 -50 -44 -23 -86 -47 -93 -53 -19 -15 -90 58 -103 106
-14 53 -84 165 -128 205 -60 55 -136 100 -204 123 -59 19 -79 34 -204 151 -76
71 -176 164 -222 206 -148 134 -471 467 -471 485 0 3 75 60 167 128 91 68 234
175 317 236 83 62 152 113 152 113 1 0 25 -42 54 -92z m3108 -308 c16 -26 252
-320 281 -351 13 -13 67 -82 122 -154 137 -181 197 -258 206 -264 5 -3 17 -19
27 -35 10 -16 33 -45 51 -65 61 -66 105 -123 101 -130 -3 -4 -27 -18 -55 -31
-28 -13 -51 -27 -51 -32 0 -4 -5 -8 -10 -8 -11 0 -265 -154 -290 -175 -8 -7
-76 -49 -150 -93 -74 -44 -167 -100 -205 -125 -57 -36 -395 -242 -416 -253 -3
-2 -22 20 -41 49 -19 29 -41 62 -49 73 -106 160 -265 375 -286 387 -7 4 -13
13 -13 20 -1 12 -106 145 -246 309 -101 119 -154 192 -146 199 7 7 197 124
257 159 17 10 95 58 175 107 80 49 213 130 295 180 83 50 166 100 185 113 134
85 226 139 235 140 6 0 16 -9 23 -20z m-16723 -513 c-1 -135 -4 -175 -23 -240
-106 -380 -413 -747 -877 -1049 -219 -142 -257 -162 -286 -153 -81 26 26 479
183 774 75 143 149 248 258 368 208 230 379 369 530 433 67 28 191 51 205 38
6 -5 10 -75 10 -171z m15569 -365 c6 -10 65 -85 131 -166 66 -82 129 -160 140
-175 10 -14 71 -95 135 -180 63 -84 150 -202 192 -262 l77 -109 -37 -23 c-20
-13 -64 -39 -97 -57 -33 -18 -74 -44 -91 -57 -17 -12 -33 -23 -36 -23 -3 0
-29 -16 -58 -35 -29 -19 -56 -35 -60 -35 -5 0 -52 -27 -105 -60 -53 -33 -99
-60 -103 -59 -4 0 -32 34 -62 76 -30 41 -64 85 -75 98 -11 12 -48 61 -83 108
-34 46 -79 102 -100 124 -20 21 -66 76 -102 122 -88 114 -286 351 -313 376
-12 11 -36 38 -54 61 l-32 41 121 74 c67 41 139 85 162 97 22 13 77 48 122 78
45 30 85 54 88 54 4 0 25 12 49 28 23 15 48 30 56 33 13 5 113 -89 135 -129z
m2027 -219 c14 -16 40 -50 59 -78 18 -27 47 -66 64 -86 17 -19 67 -82 111
-139 44 -56 99 -126 123 -154 74 -88 82 -98 82 -102 0 -3 146 -188 178 -224 7
-8 32 -40 55 -70 23 -30 44 -57 47 -60 12 -10 60 -77 60 -83 0 -4 -5 -7 -10
-7 -6 0 -28 -11 -50 -25 -22 -14 -44 -25 -49 -25 -5 0 -74 82 -153 182 -78
100 -167 209 -197 242 -29 34 -80 97 -113 141 -121 163 -193 255 -200 255 -4
0 -14 12 -22 28 -8 15 -39 56 -70 90 -31 35 -56 67 -56 72 0 8 97 69 111 70 3
0 16 -12 30 -27z m-2728 -218 c56 -66 132 -155 170 -197 38 -42 74 -85 81 -96
9 -17 192 -246 232 -292 66 -74 84 -96 84 -102 0 -4 27 -45 60 -90 33 -45 60
-84 60 -87 -1 -11 -158 -111 -180 -113 -20 -3 -21 2 -24 79 -2 72 -7 89 -33
132 -17 27 -34 59 -38 70 -9 30 -121 126 -186 161 -64 34 -163 60 -229 60 -41
0 -126 -17 -171 -35 -17 -7 -23 -1 -125 115 -31 36 -102 111 -156 167 -55 56
-97 106 -94 111 3 5 38 29 78 53 40 23 79 49 86 56 7 7 34 23 60 36 26 13 80
45 121 70 59 37 77 44 89 35 8 -7 59 -66 115 -133z m2271 -162 c41 -54 95
-123 118 -154 24 -31 80 -101 126 -155 45 -55 95 -117 110 -139 14 -22 47 -65
72 -96 25 -31 64 -81 86 -110 23 -30 78 -100 123 -156 45 -57 81 -107 81 -112
0 -5 -16 -18 -35 -30 l-35 -20 -42 53 c-24 29 -99 125 -168 211 -69 87 -134
168 -146 179 -11 12 -45 53 -75 91 -123 157 -216 276 -249 321 -19 26 -56 73
-82 103 -27 30 -48 57 -48 62 0 9 60 47 76 48 7 1 46 -43 88 -96z m-2843 -96
c35 -39 109 -119 164 -177 150 -158 141 -143 115 -177 -11 -16 -27 -53 -35
-83 -29 -110 -13 -214 47 -304 18 -27 38 -57 44 -67 34 -57 186 -148 282 -168
64 -13 152 -14 172 -1 14 9 50 -13 50 -31 0 -4 42 -69 93 -146 149 -222 342
-548 435 -738 52 -106 123 -264 127 -285 2 -8 21 -60 43 -115 65 -164 146
-412 203 -620 30 -111 79 -392 79 -454 0 -55 -1 -57 -32 -69 -34 -12 -298 -52
-343 -52 -51 0 -22 -16 88 -49 191 -57 286 -89 306 -105 11 -9 12 -61 7 -306
-7 -325 -11 -399 -27 -510 -14 -102 -68 -370 -78 -389 -5 -9 -18 -54 -30 -101
-32 -122 -95 -313 -157 -475 -30 -77 -54 -145 -54 -150 0 -6 -6 -20 -14 -30
-13 -18 -15 -19 -33 -3 -25 22 -408 265 -430 272 -10 4 -28 15 -40 25 l-22 18
34 92 c92 246 182 581 209 771 9 63 21 129 26 145 6 17 15 80 20 140 6 61 15
160 21 220 12 122 4 568 -11 675 -6 36 -14 106 -19 156 -24 232 -128 641 -234
925 -129 342 -350 779 -507 998 -21 29 -48 72 -59 95 -12 22 -59 92 -104 153
-121 166 -159 215 -437 558 -22 28 -92 104 -154 169 l-113 119 86 43 c47 23
111 58 141 77 30 19 60 32 66 30 6 -2 40 -36 75 -76z m2335 -159 c27 -35 80
-102 119 -149 38 -47 106 -132 150 -188 44 -57 90 -115 102 -129 13 -15 23
-30 23 -34 0 -4 48 -68 108 -142 59 -73 140 -175 180 -226 l73 -92 -57 -34
c-31 -18 -77 -49 -104 -69 -26 -19 -52 -35 -56 -35 -5 0 -38 -18 -74 -40 -35
-22 -68 -36 -71 -32 -4 4 -33 59 -65 122 -31 63 -70 134 -86 158 -15 24 -28
45 -28 47 0 2 -13 26 -28 52 -16 27 -31 59 -35 73 -3 14 -16 36 -27 48 -12 12
-28 39 -36 58 -9 20 -27 55 -42 78 -15 22 -29 46 -32 51 -7 15 -120 194 -200
317 l-70 108 28 16 c15 10 44 28 64 41 21 12 43 23 51 23 7 0 20 9 30 20 9 11
21 20 25 20 5 0 31 -28 58 -62z m-302 -165 c20 -29 36 -55 36 -59 0 -9 140
-235 161 -259 9 -11 20 -30 24 -43 3 -12 17 -35 31 -51 42 -50 348 -646 339
-661 -3 -5 -45 -33 -93 -61 -48 -29 -91 -59 -97 -66 -5 -7 -28 -20 -50 -29
-22 -9 -58 -29 -82 -45 -23 -16 -44 -29 -46 -29 -2 0 -4 31 -5 70 0 60 -5 79
-39 145 -83 165 -232 268 -422 290 l-62 7 -37 60 c-20 33 -70 109 -109 169
-40 60 -73 112 -73 115 0 3 -21 35 -46 71 -38 54 -43 68 -32 78 7 6 60 40 118
75 58 34 114 71 125 80 11 10 43 29 70 43 28 14 95 55 150 91 54 36 100 64
101 63 1 -1 18 -26 38 -54z m-688 -392 c6 -12 21 -34 33 -48 38 -43 255 -373
249 -378 -2 -1 -21 -11 -43 -21 -91 -41 -119 -76 -156 -188 -20 -61 -21 -76
-12 -130 29 -170 162 -317 340 -377 54 -18 82 -21 169 -18 l105 4 35 -80 c19
-44 40 -89 46 -100 10 -18 28 -66 135 -355 73 -200 144 -438 192 -646 17 -71
33 -139 37 -151 5 -18 2 -23 -12 -23 -11 0 -64 -16 -119 -36 -55 -19 -122 -42
-149 -50 -27 -9 -59 -22 -70 -29 -12 -7 -46 -18 -76 -23 -30 -6 -68 -15 -83
-21 -16 -6 -30 -11 -32 -11 -4 0 -19 92 -18 109 4 39 -77 433 -97 476 -5 11
-23 67 -39 125 -51 175 -164 497 -224 637 -54 124 -207 424 -284 559 -69 120
-171 278 -289 453 -35 52 -64 98 -64 101 0 4 55 40 123 80 67 41 131 82 142
91 29 26 128 79 140 76 6 -2 15 -14 21 -26z m-17215 -708 c-6 -43 -23 -161
-37 -263 -14 -102 -27 -185 -28 -185 0 -1 -43 -11 -94 -23 -186 -44 -322 -111
-463 -228 l-76 -64 -133 20 c-73 10 -134 21 -136 23 -8 8 187 207 291 296 96
84 353 290 425 341 94 66 254 169 258 165 3 -2 0 -39 -7 -82z m18598 -178 c28
-63 51 -117 51 -120 0 -3 20 -48 45 -99 25 -52 45 -100 45 -107 0 -6 9 -30 20
-53 24 -51 83 -213 104 -286 8 -30 31 -109 50 -175 77 -262 117 -423 162 -655
14 -69 29 -143 34 -165 5 -22 9 -51 10 -64 0 -23 -1 -23 -19 -7 -29 26 -136
75 -222 101 -110 33 -219 48 -333 44 l-100 -4 -13 60 c-74 328 -170 642 -287
940 -58 149 -79 200 -141 340 l-13 30 106 65 c58 36 142 89 185 118 43 28 92
59 110 66 18 8 57 30 87 49 30 20 58 36 61 36 4 1 30 -51 58 -114z m-19485
-670 c54 -7 100 -15 102 -17 2 -2 -13 -28 -32 -57 -81 -120 -173 -337 -190
-449 -3 -20 -8 -103 -11 -184 l-6 -148 -131 6 c-72 4 -135 10 -140 15 -13 12
8 250 33 369 32 156 105 335 183 447 27 39 32 43 61 38 18 -3 76 -12 131 -20z
m715 -402 c-15 -104 -37 -246 -48 -316 -12 -70 -23 -153 -26 -184 -2 -30 -6
-58 -9 -61 -3 -3 -41 4 -83 16 -75 20 -285 56 -387 66 -26 3 -50 7 -53 10 -11
10 39 174 76 250 100 206 267 350 454 391 115 25 107 43 76 -172z m285 146
c260 -91 446 -280 492 -499 27 -131 8 -315 -46 -437 l-19 -44 -38 17 c-126 54
-326 129 -441 165 l-134 42 7 56 c3 31 19 139 35 241 15 102 38 251 50 333 12
81 25 147 29 147 4 0 33 -9 65 -21z m1096 -530 c309 -210 726 -629 974 -979
22 -30 52 -68 66 -85 34 -38 168 -238 374 -560 138 -216 438 -699 460 -740 6
-11 26 -41 44 -67 l32 -47 -52 -34 c-29 -19 -85 -57 -124 -85 l-71 -51 -6 65
c-17 214 -253 402 -494 392 l-81 -3 -43 70 c-57 94 -260 399 -269 405 -11 7
-90 113 -90 120 0 4 8 15 18 26 31 33 281 430 282 447 0 4 -15 16 -32 27 -31
19 -34 19 -49 2 -16 -16 -240 -364 -264 -410 -12 -22 -13 -22 -48 27 -45 62
-153 185 -272 309 -124 130 -423 384 -498 423 -12 7 -59 36 -104 66 l-83 54
23 37 c129 207 197 418 197 608 0 41 3 53 13 48 6 -4 50 -33 97 -65z m-2269
-165 l66 -7 17 -66 c10 -36 33 -95 53 -131 43 -79 152 -238 183 -265 l22 -20
-7 55 c-4 30 -15 105 -25 165 -10 61 -21 138 -25 173 -6 56 -5 62 12 62 36 0
299 -40 397 -60 54 -11 99 -20 101 -20 1 0 -6 -51 -16 -112 -10 -62 -32 -213
-50 -335 -17 -122 -35 -226 -38 -231 -4 -6 -66 3 -159 22 -129 28 -169 41
-256 84 -166 84 -273 188 -389 377 -36 59 -89 204 -101 278 l-7 37 78 0 c43 0
108 -3 144 -6z m19804 -150 c122 -15 288 -60 366 -100 31 -16 34 -27 48 -209
19 -243 21 -337 8 -332 -7 2 -135 43 -285 91 -151 48 -291 94 -313 104 -44 19
-44 20 -54 162 -4 47 -11 104 -16 126 -4 23 -10 69 -13 102 -3 50 -1 62 13 65
34 10 120 6 246 -9z m-360 -56 c4 -29 9 -69 10 -88 2 -19 6 -83 10 -142 l8
-107 -54 16 c-162 47 -274 91 -271 105 9 33 76 128 120 170 41 40 138 98 164
98 3 0 9 -24 13 -52z m-18289 -13 c157 -53 305 -110 367 -142 28 -14 28 -15
11 -41 -70 -110 -222 -241 -347 -301 -76 -37 -293 -98 -304 -87 -3 3 0 40 6
83 7 43 25 168 42 278 37 252 39 265 50 265 5 0 83 -25 175 -55z m17899 -285
c83 -28 171 -55 197 -60 27 -5 68 -18 92 -29 24 -11 65 -26 91 -33 l48 -13 -6
-275 c-5 -257 -28 -538 -56 -672 -76 -365 -230 -831 -359 -1085 -49 -98 -58
-110 -72 -99 -8 8 -34 23 -56 35 -23 11 -48 27 -56 34 -14 14 -196 134 -306
202 -35 21 -65 41 -67 45 -5 9 31 109 78 215 105 238 196 576 253 935 9 58 23
143 31 190 10 56 17 184 20 373 3 158 9 287 12 287 4 0 74 -23 156 -50z
m-17000 -156 c84 -61 169 -127 245 -192 158 -133 422 -404 510 -523 l59 -81
-26 -42 c-15 -22 -50 -77 -78 -121 -101 -155 -129 -200 -144 -230 -9 -16 -31
-51 -50 -76 l-33 -47 -172 173 c-231 233 -384 358 -601 489 -44 27 -91 56
-105 65 -14 8 -29 16 -35 17 -5 1 -86 38 -180 82 -93 44 -196 89 -227 99 l-57
19 67 22 c69 22 278 124 336 165 69 47 158 125 238 208 l83 87 55 -35 c30 -20
82 -55 115 -79z m17802 -97 l171 -53 -53 -47 c-161 -141 -181 -421 -45 -611
54 -74 159 -146 215 -146 31 0 31 -7 4 -124 -124 -527 -215 -787 -409 -1171
-225 -444 -496 -843 -876 -1285 -755 -879 -1854 -1725 -3144 -2422 -36 -19
-92 -50 -125 -68 -232 -128 -1130 -558 -1141 -547 -5 5 73 232 164 475 l69
183 124 58 c254 118 569 280 864 443 55 31 118 59 139 63 60 10 134 52 195
110 52 48 142 115 156 115 3 0 18 9 33 19 15 10 61 40 102 67 454 288 870 599
1280 958 154 134 541 521 673 673 114 131 271 325 351 436 28 37 53 67 57 67
4 0 20 -5 36 -11 15 -6 58 -11 95 -11 204 0 368 202 368 453 0 78 -26 186 -58
241 -15 26 -14 31 57 179 40 84 75 162 77 174 4 21 24 69 76 185 86 187 203
649 238 935 6 50 15 115 20 145 6 30 13 177 16 326 l7 271 46 -13 c25 -8 123
-38 218 -67z m-18781 -356 c166 -55 177 -59 284 -103 52 -21 121 -54 153 -73
31 -19 83 -49 115 -66 77 -43 214 -132 285 -185 31 -24 60 -44 64 -44 22 0
341 -308 443 -427 l52 -62 -48 -78 c-27 -43 -56 -91 -65 -108 -9 -16 -47 -78
-85 -137 l-69 -106 -29 61 c-70 149 -228 237 -427 237 -82 0 -88 2 -145 38
-228 146 -393 225 -624 301 -101 33 -210 61 -237 61 -3 0 -2 11 1 25 23 91 67
354 81 480 9 83 19 167 22 188 l6 37 52 0 c35 0 94 -14 171 -39z m2026 -666
c69 -104 138 -212 154 -239 l30 -49 -51 -51 c-64 -64 -101 -165 -90 -249 26
-209 246 -387 478 -387 l65 0 103 -177 c57 -98 123 -209 146 -247 45 -73 44
-86 -4 -86 -42 0 -23 -19 30 -30 44 -9 56 -16 72 -43 21 -36 191 -293 250
-377 126 -180 304 -399 437 -539 l90 -94 -49 -51 c-28 -28 -86 -92 -130 -142
l-81 -92 -7 37 c-11 60 -65 149 -123 202 -63 58 -128 93 -209 114 -64 17 -201
20 -250 6 -29 -9 -35 -7 -51 17 -29 42 -167 273 -252 422 -73 128 -97 173
-228 420 -30 58 -63 116 -72 130 -9 14 -39 68 -67 120 -28 52 -76 145 -108
205 -157 296 -426 714 -552 858 -18 20 -33 42 -33 47 0 6 60 102 133 213 73
111 148 226 166 254 l33 52 22 -27 c13 -15 79 -112 148 -217z m14223 -30 c28
-15 58 -35 68 -44 10 -9 96 -66 190 -127 103 -66 171 -116 170 -125 -10 -73
-154 -375 -270 -566 -62 -102 -101 -161 -260 -393 -72 -104 -126 -173 -140
-177 -6 -2 -26 15 -45 38 -18 23 -101 116 -184 208 l-151 166 30 45 c17 25 41
58 54 74 37 45 176 283 241 413 61 120 80 164 128 288 15 39 40 98 55 132 16
34 31 74 35 88 4 17 10 23 18 16 6 -5 34 -21 61 -36z m-12200 -129 c29 -95 17
-236 -34 -412 -45 -158 -99 -246 -201 -328 -25 -20 -50 -40 -55 -44 -6 -5 -23
-17 -38 -27 l-28 -18 7 29 c4 16 10 34 14 39 10 13 48 194 56 260 3 27 8 53
10 57 3 4 18 77 34 160 32 173 77 293 136 365 l37 45 24 -38 c13 -22 30 -61
38 -88z m-4677 83 c50 -6 92 -15 92 -18 0 -13 -62 -186 -69 -191 -3 -3 -19
-31 -34 -62 -33 -64 -122 -155 -185 -187 -92 -47 -264 -68 -387 -47 l-50 8 62
24 c151 56 290 166 356 281 37 65 67 149 67 191 0 20 4 23 28 18 15 -3 69 -10
120 -17z m382 -78 c111 -32 306 -100 379 -133 68 -30 248 -129 294 -160 l28
-20 -55 -39 c-107 -77 -163 -208 -136 -321 38 -159 191 -285 377 -308 133 -17
296 27 380 104 l40 35 25 -27 c30 -31 142 -174 178 -227 14 -20 41 -57 61 -83
35 -46 146 -220 149 -234 1 -4 40 -74 86 -155 47 -81 188 -355 315 -608 222
-446 307 -610 372 -725 295 -522 638 -968 1011 -1318 45 -41 93 -87 109 -101
l27 -26 -60 -44 c-33 -24 -60 -47 -60 -50 0 -5 150 -100 173 -110 4 -1 14 3
20 10 7 8 26 27 43 42 l31 28 144 -108 c79 -59 170 -126 202 -147 31 -22 57
-42 57 -45 0 -3 -14 -25 -30 -49 -108 -160 -28 -378 171 -465 179 -80 372 -54
507 68 l53 48 127 -60 c70 -33 153 -70 184 -84 32 -13 57 -26 57 -29 0 -7
-121 -107 -185 -152 -30 -22 -53 -42 -50 -45 7 -8 172 72 257 124 l66 40 74
-29 c404 -157 938 -308 1339 -381 65 -12 75 -16 72 -33 -4 -17 -116 -377 -128
-409 -4 -9 7 -17 33 -24 56 -16 58 -15 78 30 41 91 157 184 369 298 97 52 101
53 160 47 1085 -116 2048 -70 3216 153 482 92 1036 233 1530 390 l185 58 3
-120 c1 -66 1 -122 -2 -124 -2 -3 -22 7 -44 22 -116 77 -309 74 -451 -7 -207
-118 -302 -339 -219 -507 l23 -48 -155 -43 c-995 -277 -1968 -446 -2890 -501
-253 -16 -892 -16 -1135 -1 -975 61 -1837 258 -2580 589 -110 49 -393 190
-465 231 -275 158 -483 296 -715 476 -102 79 -321 274 -430 382 -507 502 -866
1038 -1220 1819 -42 94 -97 215 -122 270 -382 843 -679 1287 -1091 1628 -82
68 -340 247 -356 247 -4 0 -23 11 -44 23 -62 39 -258 126 -381 168 -121 42
-278 79 -441 105 -165 26 -178 29 -153 38 49 16 172 106 228 167 96 104 181
264 230 433 19 65 7 63 135 27z m3831 -316 c31 -163 33 -376 5 -452 -11 -29
-22 -53 -25 -53 -16 1 -276 387 -284 421 -2 8 273 212 279 207 1 -2 12 -57 25
-123z m-2097 67 c6 -11 49 -72 96 -135 46 -64 135 -196 197 -294 128 -203 184
-301 368 -648 26 -49 60 -112 75 -140 15 -27 53 -99 85 -160 32 -60 81 -150
108 -200 27 -49 63 -115 80 -145 37 -68 200 -339 233 -387 l23 -35 -30 -25
c-16 -14 -49 -53 -72 -87 -41 -61 -41 -62 -41 -151 0 -119 21 -165 118 -261
62 -61 85 -76 155 -103 97 -37 208 -50 291 -32 l55 12 126 -133 126 -133 -28
-45 c-68 -111 -56 -253 29 -344 89 -95 304 -176 468 -176 l65 0 -53 -43 c-104
-84 -469 -357 -479 -357 -28 0 -357 329 -510 510 -248 294 -465 612 -663 973
-48 87 -189 364 -315 615 -215 430 -263 523 -281 547 -4 6 -21 35 -37 65 -166
307 -344 575 -505 762 l-49 56 66 100 c36 55 65 103 65 106 0 4 37 64 83 134
46 70 92 142 102 159 20 33 27 32 49 -5z m15379 -27 c43 -27 128 -83 190 -123
62 -40 132 -84 157 -97 71 -37 86 -51 73 -66 -6 -8 -42 -75 -80 -149 -107
-207 -244 -429 -375 -611 -26 -37 -48 -70 -48 -74 0 -9 -84 -118 -140 -181
-25 -28 -81 -92 -124 -143 -72 -85 -81 -92 -92 -75 -16 25 -90 111 -222 259
-59 66 -111 126 -116 133 -4 7 15 41 52 90 88 116 282 393 282 403 0 4 25 49
57 100 68 113 247 463 275 537 11 29 23 52 26 50 4 -2 42 -25 85 -53z m-13644
-232 c26 -45 162 -250 275 -417 18 -26 -107 -155 -239 -247 -60 -42 -114 -71
-175 -94 -25 -10 -50 -19 -57 -22 -6 -3 -40 44 -78 109 -37 62 -76 125 -86
140 -18 25 -62 98 -120 202 l-27 49 56 38 c32 21 80 54 107 74 28 19 61 43 75
53 89 60 206 148 213 159 13 21 21 15 56 -44z m12051 -143 c0 -8 -85 -108
-243 -288 l-100 -113 24 -27 c13 -15 40 -43 59 -62 49 -50 135 -152 135 -160
0 -12 -193 -209 -285 -291 -139 -124 -160 -142 -275 -233 -60 -48 -120 -96
-131 -106 -46 -43 -201 -149 -376 -259 -52 -33 -71 -40 -85 -33 -28 15 -76 69
-72 80 5 14 150 189 220 265 31 34 131 150 222 257 230 270 329 385 393 455
30 33 78 89 107 123 108 132 191 228 228 266 21 21 62 67 91 102 49 59 54 62
70 47 10 -9 18 -19 18 -23z m2206 -18 c49 -31 112 -72 139 -90 38 -24 45 -32
28 -32 -34 0 -144 -80 -185 -135 -38 -50 -43 -61 -79 -185 -42 -146 -11 -305
80 -420 l28 -35 -91 -121 c-458 -605 -1047 -1162 -1786 -1685 -154 -110 -532
-360 -537 -356 -1 2 2 32 8 67 19 119 -18 251 -97 341 -84 97 -85 78 8 139
257 167 560 393 823 615 l120 101 55 -13 c66 -16 160 -3 224 29 23 11 73 53
112 92 96 98 136 189 142 325 l5 94 117 136 c150 174 241 295 445 589 72 105
190 307 266 455 40 81 77 147 80 147 3 0 46 -26 95 -58z m-1840 -379 c83 -96
181 -202 224 -245 21 -20 47 -50 59 -66 l21 -30 -43 -48 c-140 -162 -367 -400
-448 -469 -51 -44 -116 -101 -143 -126 -200 -180 -419 -349 -684 -526 l-202
-136 -30 29 c-17 16 -67 72 -112 124 -46 52 -110 123 -142 157 -33 35 -57 65
-55 66 2 2 24 15 49 29 25 14 56 36 70 48 14 12 45 34 70 48 25 15 88 57 140
95 89 64 140 105 294 232 34 28 89 72 124 99 146 111 565 549 667 696 44 64
66 90 75 90 3 0 33 -30 66 -67z m-11992 -78 c114 -152 378 -448 536 -601 l85
-82 -30 -36 c-17 -19 -72 -81 -124 -138 -99 -108 -119 -131 -240 -266 l-75
-84 -25 29 c-98 106 -205 228 -252 288 -152 191 -359 474 -359 490 0 3 -23 39
-50 81 -28 42 -48 79 -45 84 2 4 25 13 51 19 97 25 275 144 394 265 30 31 57
53 61 48 3 -4 36 -47 73 -97z m12435 -506 c-114 -29 -210 -104 -273 -212 -15
-25 -38 -88 -52 -139 -21 -75 -25 -107 -20 -165 7 -86 32 -158 75 -212 l31
-39 -67 -59 c-197 -174 -441 -358 -757 -573 -173 -118 -179 -121 -197 -103
-10 10 -88 95 -172 188 l-155 170 80 53 c44 29 108 71 142 94 97 67 403 296
423 317 23 24 211 181 242 203 71 50 418 393 562 557 l73 84 67 -74 67 -73
-69 -17z m-11708 -256 c47 -56 351 -263 684 -465 190 -115 701 -372 820 -413
27 -9 66 -25 85 -35 84 -45 408 -171 542 -210 40 -12 78 -26 83 -30 34 -25
434 -143 735 -215 124 -30 239 -59 255 -64 38 -13 404 -85 505 -100 41 -6 147
-22 235 -36 293 -45 681 -81 990 -92 l192 -6 -15 -61 c-8 -34 -24 -108 -37
-166 -26 -115 -89 -389 -100 -432 l-7 -28 -162 0 c-275 0 -782 29 -1051 61
-113 13 -129 17 -116 32 21 26 29 121 17 188 -22 113 -103 203 -224 250 -70
27 -205 36 -285 19 -109 -22 -240 -106 -295 -187 -9 -14 -26 -51 -38 -82 -14
-37 -25 -55 -35 -52 -8 2 -36 7 -64 11 -258 39 -990 279 -1440 473 l-150 64 3
82 c1 44 -1 81 -5 81 -5 -1 -22 -30 -39 -65 l-30 -64 -130 65 c-71 35 -131 64
-134 64 -3 0 -36 16 -73 36 -59 31 -66 38 -55 52 11 13 9 15 -16 10 -34 -7
-39 -4 -261 132 l-160 98 -7 56 c-9 66 -26 103 -75 157 -70 77 -186 115 -276
89 -41 -11 -47 -10 -83 13 -40 25 -207 171 -258 225 -34 37 -48 14 119 203 66
74 141 160 166 190 158 185 161 188 190 152z m9662 -520 c17 -21 72 -81 122
-133 50 -52 112 -119 138 -149 l48 -54 -138 -82 c-76 -45 -160 -94 -188 -110
-27 -15 -89 -49 -136 -75 -47 -27 -181 -96 -299 -154 l-213 -106 -28 48 c-31
56 -81 102 -142 134 -61 32 -208 31 -289 -1 -124 -48 -242 -159 -293 -275 -28
-64 -49 -164 -43 -206 4 -27 1 -33 -21 -42 -43 -17 -272 -98 -331 -118 -30 -9
-63 -21 -72 -25 -16 -6 -18 0 -18 54 l0 61 -50 0 -49 0 -3 -77 c-3 -72 -4 -77
-28 -84 -14 -4 -88 -25 -165 -48 -77 -22 -142 -41 -145 -41 -3 0 -4 73 -2 163
3 133 0 181 -17 267 -11 58 -23 113 -26 121 -5 12 7 18 52 28 259 58 730 207
1078 341 193 75 607 256 640 280 6 4 102 57 215 117 113 61 239 131 280 156
41 26 79 47 83 47 4 0 22 -17 40 -37z m-10130 -176 c62 -56 130 -117 151 -134
l40 -33 -20 -22 c-79 -91 -80 -246 -1 -350 40 -52 145 -116 251 -152 84 -29
230 -50 274 -40 l27 7 -20 -23 c-32 -35 -184 -183 -250 -241 -33 -29 -79 -71
-102 -92 -59 -56 -81 -69 -96 -61 -6 4 -51 37 -98 72 l-87 64 5 63 c8 89 -16
152 -81 219 -36 37 -66 58 -101 69 -61 20 -159 24 -199 8 -29 -12 -32 -10
-116 76 -48 48 -102 105 -120 126 l-33 39 40 36 c39 35 339 370 393 439 14 18
26 32 28 32 2 1 54 -45 115 -102z m10577 -319 c59 -66 103 -114 228 -251 24
-26 41 -51 38 -56 -3 -5 -30 -14 -58 -21 -69 -16 -131 -52 -198 -116 -60 -57
-58 -55 -315 -197 -165 -91 -548 -287 -560 -287 -3 0 -5 6 -5 13 0 32 -196
277 -222 277 -5 0 9 -33 30 -72 38 -70 112 -238 112 -255 0 -4 -17 -15 -38
-24 -20 -9 -122 -55 -227 -102 -328 -146 -379 -166 -387 -152 -13 22 -108 278
-105 282 2 1 19 -2 38 -7 54 -16 142 -12 212 10 176 54 320 221 349 403 l12
73 215 107 c274 135 697 370 776 431 11 8 25 16 30 16 6 0 39 -33 75 -72z
m-3390 -15 c25 -10 59 -26 75 -35 45 -25 157 -144 214 -228 50 -73 51 -75 29
-83 -12 -4 -110 -24 -218 -43 -107 -19 -205 -37 -216 -39 -20 -4 -26 6 -59 98
-21 56 -53 137 -71 180 -18 42 -31 77 -29 77 2 0 -3 16 -11 35 -18 45 -19 43
19 54 50 16 214 6 267 -16z m-5722 -608 c4 -3 -71 -156 -231 -473 l-117 -232
-108 54 c-59 29 -147 77 -196 105 -49 28 -91 51 -93 51 -8 0 -343 210 -343
215 0 10 363 307 519 426 l115 86 225 -115 c125 -63 227 -116 229 -117z m6145
109 c33 -67 73 -261 83 -400 l7 -100 -44 -11 c-170 -42 -352 -83 -355 -80 -5
5 -141 357 -179 464 l-32 91 106 17 c58 9 167 29 241 45 74 16 137 29 140 29
3 1 18 -24 33 -55z m-603 -79 c5 -14 18 -44 29 -68 10 -23 23 -58 29 -77 6
-19 22 -66 36 -105 14 -38 26 -73 26 -76 0 -3 -25 -1 -56 5 -72 13 -166 -3
-242 -40 -77 -37 -190 -151 -228 -230 l-29 -60 -175 -22 c-204 -26 -480 -49
-703 -60 -86 -4 -157 -7 -157 -7 0 6 45 205 55 245 8 30 17 77 21 104 3 27 12
66 18 85 7 20 23 84 36 142 l24 106 316 6 c173 4 365 11 425 17 203 18 510 52
514 56 2 2 15 4 28 4 16 0 27 -8 33 -25z m3446 -100 c-25 -98 -11 -227 33
-313 21 -41 85 -113 116 -130 11 -6 18 -12 15 -15 -25 -21 -525 -279 -780
-403 l-86 -42 25 92 c32 121 34 306 4 408 l-20 67 161 80 c194 97 403 207 471
249 62 38 69 38 61 7z m-8526 -127 c289 -115 764 -268 1091 -349 114 -29 206
-55 204 -59 -4 -6 -206 -638 -224 -700 -9 -31 0 -32 -251 27 -316 74 -717 194
-1001 300 l-46 17 -6 85 c-4 47 -17 142 -31 211 -33 171 -64 395 -70 512 l-5
97 82 -35 c45 -20 161 -67 257 -106z m6867 -218 c47 -124 87 -232 90 -240 3
-11 -9 -20 -39 -32 -234 -89 -400 -151 -483 -181 -55 -19 -108 -38 -117 -42
-17 -7 -18 10 -18 276 l0 284 168 57 c92 31 196 67 232 81 36 14 69 24 73 23
5 -1 47 -103 94 -226z m-8302 -70 c122 -76 294 -174 443 -251 67 -35 122 -68
122 -74 0 -5 -59 -127 -132 -271 l-132 -261 -19 36 c-89 168 -340 250 -547
177 -41 -15 -82 -29 -90 -32 -14 -5 -250 157 -367 251 l-52 42 47 45 c75 70
329 298 431 386 l93 81 57 -36 c31 -20 97 -62 146 -93z m7635 -184 l0 -284
-22 -5 c-13 -3 -120 -34 -238 -70 -654 -197 -1315 -336 -1990 -417 -83 -10
-512 -48 -517 -46 -1 1 11 57 27 126 16 69 50 221 76 338 l48 212 85 0 c187 0
485 23 795 61 88 10 161 19 162 19 1 0 4 -31 6 -70 9 -117 81 -212 192 -251
67 -23 154 -24 227 -3 186 55 338 244 339 421 0 40 2 43 38 51 169 41 300 73
318 78 19 5 20 3 13 -70 -4 -41 -10 -84 -14 -95 -10 -32 14 -25 26 7 6 15 20
61 31 102 l20 76 89 23 c49 13 128 36 176 51 49 16 94 29 101 29 9 1 12 -62
12 -283z m1542 24 c1 -115 -3 -149 -25 -230 -36 -131 -52 -167 -86 -184 -85
-44 -355 -155 -361 -149 -4 4 -44 105 -88 223 -44 118 -83 222 -87 231 -6 17
-8 16 265 133 96 41 218 95 270 119 l95 44 8 -26 c5 -14 9 -87 9 -161z m-8271
33 c64 -61 115 -154 126 -228 6 -46 6 -47 -18 -40 -21 7 -119 49 -267 116
l-42 20 52 103 c61 120 55 119 149 29z m1922 -112 c18 -31 88 -86 146 -116 19
-9 70 -23 113 -31 150 -26 313 15 410 104 30 28 39 28 293 -2 243 -29 724 -56
1008 -56 78 0 117 -4 117 -11 0 -6 -24 -117 -54 -248 -30 -130 -58 -253 -61
-273 l-7 -37 -47 46 c-70 71 -154 105 -272 111 -152 7 -275 -37 -382 -137 -27
-25 -60 -65 -74 -88 -14 -24 -31 -43 -38 -43 -54 0 -398 23 -520 35 -82 8
-156 15 -163 15 -9 0 -7 11 8 39 32 63 45 166 31 256 -15 102 -86 273 -105
254 -4 -3 0 -21 8 -40 7 -19 19 -67 26 -108 20 -120 -12 -266 -79 -360 l-20
-28 -158 23 c-87 12 -216 33 -286 45 l-128 22 6 26 c14 59 200 631 205 631 3
0 13 -13 23 -29z m5628 -102 c73 -184 150 -395 152 -412 2 -18 -21 -30 -168
-89 -236 -95 -514 -201 -652 -248 l-53 -17 0 282 0 281 58 18 c83 26 430 154
567 210 33 13 64 23 70 22 5 -1 17 -22 26 -47z m-7661 -80 c74 -33 159 -70
189 -81 l54 -20 -6 -57 c-14 -125 -93 -347 -163 -456 -45 -72 -153 -205 -165
-205 -26 0 -399 170 -399 182 0 4 41 88 91 185 50 98 129 253 175 346 46 92
85 167 87 167 1 0 63 -27 137 -61z m6840 -441 l0 -283 -103 -33 c-1004 -325
-1969 -524 -2952 -607 -271 -23 -744 -34 -1070 -24 -280 8 -660 34 -697 48
-16 6 -11 12 29 43 215 166 343 379 343 574 0 35 4 65 9 68 5 3 69 0 143 -8
73 -8 219 -20 323 -26 105 -6 217 -13 250 -16 l60 -5 3 -47 c8 -131 123 -254
271 -288 247 -59 525 84 583 299 9 34 18 49 33 52 11 2 97 8 191 14 688 43
1781 259 2494 494 41 14 78 25 83 26 4 1 7 -126 7 -281z m-6135 167 c206 -69
464 -143 685 -195 96 -22 198 -46 226 -53 l50 -12 -114 -360 c-63 -198 -116
-362 -118 -364 -6 -6 -338 63 -509 105 -272 68 -526 145 -762 232 l-151 56 88
87 c150 149 250 328 290 518 10 47 19 87 19 88 1 1 31 -9 69 -23 37 -14 139
-50 227 -79z m7455 -89 c-70 -89 -114 -126 -151 -126 -25 0 -33 6 -45 36 -8
20 -14 37 -12 38 3 2 250 113 256 115 1 1 -20 -28 -48 -63z m-220 -291 c89
-234 103 -275 99 -279 -18 -16 -572 -238 -854 -342 -110 -41 -210 -79 -222
-84 l-23 -10 0 283 0 282 68 23 c198 69 767 288 822 317 14 8 28 10 31 7 4 -4
39 -92 79 -197z m-5960 65 c96 -16 189 -30 207 -30 81 0 23 -33 -142 -80 -67
-20 -335 -63 -343 -56 -2 2 11 49 29 105 28 91 34 100 53 96 11 -3 100 -18
196 -35z m355 -142 c-25 -119 -104 -252 -195 -327 -117 -97 -315 -195 -428
-211 -51 -7 -157 2 -169 14 -10 9 37 73 91 124 67 63 150 117 336 217 80 43
195 108 255 145 61 37 111 68 113 69 2 0 1 -14 -3 -31z m4424 -402 c72 -38 80
-113 22 -202 -73 -112 -83 -118 -337 -198 l-229 -72 -3 28 c-6 53 37 118 146
226 212 208 313 263 401 218z"/>
</g>
</svg>
