<svg width="139" height="88" viewBox="0 0 139 88" fill="none" xmlns="http://www.w3.org/2000/svg">
<g filter="url(#filter0_d_1_7)">
<path d="M22.8281 52.082L13.4141 78H9.56641L20.4062 49.5625H22.8867L22.8281 52.082ZM30.7188 78L21.2852 52.082L21.2266 49.5625H23.707L34.5859 78H30.7188ZM30.2305 67.4727V70.5586H14.2539V67.4727H30.2305ZM41.7734 48V78H38.1406V48H41.7734ZM51.5 48V78H47.8672V48H51.5ZM66.0703 78.3906C64.599 78.3906 63.2643 78.1432 62.0664 77.6484C60.8815 77.1406 59.8594 76.431 59 75.5195C58.1536 74.6081 57.5026 73.5273 57.0469 72.2773C56.5911 71.0273 56.3633 69.6602 56.3633 68.1758V67.3555C56.3633 65.6367 56.6172 64.1068 57.125 62.7656C57.6328 61.4115 58.3229 60.2656 59.1953 59.3281C60.0677 58.3906 61.0573 57.681 62.1641 57.1992C63.2708 56.7174 64.4167 56.4766 65.6016 56.4766C67.112 56.4766 68.4141 56.737 69.5078 57.2578C70.6146 57.7786 71.5195 58.5078 72.2227 59.4453C72.9258 60.3698 73.4466 61.4635 73.7852 62.7266C74.1237 63.9766 74.293 65.3438 74.293 66.8281V68.4492H58.5117V65.5H70.6797V65.2266C70.6276 64.2891 70.4323 63.3776 70.0938 62.4922C69.7682 61.6068 69.2474 60.8776 68.5312 60.3047C67.8151 59.7318 66.8385 59.4453 65.6016 59.4453C64.7812 59.4453 64.026 59.6211 63.3359 59.9727C62.6458 60.3112 62.0534 60.819 61.5586 61.4961C61.0638 62.1732 60.6797 63 60.4062 63.9766C60.1328 64.9531 59.9961 66.0794 59.9961 67.3555V68.1758C59.9961 69.1784 60.1328 70.1224 60.4062 71.0078C60.6927 71.8802 61.1029 72.6484 61.6367 73.3125C62.1836 73.9766 62.8411 74.4974 63.6094 74.875C64.3906 75.2526 65.276 75.4414 66.2656 75.4414C67.5417 75.4414 68.6224 75.181 69.5078 74.6602C70.3932 74.1393 71.168 73.4427 71.832 72.5703L74.0195 74.3086C73.5638 74.9987 72.9844 75.6562 72.2812 76.2812C71.5781 76.9062 70.7122 77.4141 69.6836 77.8047C68.668 78.1953 67.4635 78.3906 66.0703 78.3906ZM82.125 60.1875V78H78.5117V56.8672H82.0273L82.125 60.1875ZM88.7266 56.75L88.707 60.1094C88.4076 60.0443 88.1211 60.0052 87.8477 59.9922C87.5872 59.9661 87.2878 59.9531 86.9492 59.9531C86.1159 59.9531 85.3802 60.0833 84.7422 60.3438C84.1042 60.6042 83.5638 60.9688 83.1211 61.4375C82.6784 61.9062 82.3268 62.4661 82.0664 63.1172C81.819 63.7552 81.6562 64.4583 81.5781 65.2266L80.5625 65.8125C80.5625 64.5365 80.6862 63.3385 80.9336 62.2188C81.194 61.099 81.5911 60.1094 82.125 59.25C82.6589 58.3776 83.3359 57.7005 84.1562 57.2188C84.9896 56.724 85.9792 56.4766 87.125 56.4766C87.3854 56.4766 87.6849 56.5091 88.0234 56.5742C88.362 56.6263 88.5964 56.6849 88.7266 56.75ZM89.7031 76.0859C89.7031 75.474 89.8919 74.9596 90.2695 74.543C90.6602 74.1133 91.2201 73.8984 91.9492 73.8984C92.6784 73.8984 93.2318 74.1133 93.6094 74.543C94 74.9596 94.1953 75.474 94.1953 76.0859C94.1953 76.6849 94 77.1927 93.6094 77.6094C93.2318 78.026 92.6784 78.2344 91.9492 78.2344C91.2201 78.2344 90.6602 78.026 90.2695 77.6094C89.8919 77.1927 89.7031 76.6849 89.7031 76.0859ZM104.117 56.8672V78H100.484V56.8672H104.117ZM100.211 51.2617C100.211 50.6758 100.387 50.181 100.738 49.7773C101.103 49.3737 101.637 49.1719 102.34 49.1719C103.03 49.1719 103.557 49.3737 103.922 49.7773C104.299 50.181 104.488 50.6758 104.488 51.2617C104.488 51.8216 104.299 52.3034 103.922 52.707C103.557 53.0977 103.03 53.293 102.34 53.293C101.637 53.293 101.103 53.0977 100.738 52.707C100.387 52.3034 100.211 51.8216 100.211 51.2617ZM122.379 74.3867V63.5078C122.379 62.6745 122.21 61.9518 121.871 61.3398C121.546 60.7148 121.051 60.2331 120.387 59.8945C119.723 59.556 118.902 59.3867 117.926 59.3867C117.014 59.3867 116.214 59.543 115.523 59.8555C114.846 60.168 114.312 60.5781 113.922 61.0859C113.544 61.5938 113.355 62.1406 113.355 62.7266H109.742C109.742 61.9714 109.938 61.2227 110.328 60.4805C110.719 59.7383 111.279 59.0677 112.008 58.4688C112.75 57.8568 113.635 57.375 114.664 57.0234C115.706 56.6589 116.865 56.4766 118.141 56.4766C119.677 56.4766 121.031 56.737 122.203 57.2578C123.388 57.7786 124.312 58.5664 124.977 59.6211C125.654 60.6628 125.992 61.9714 125.992 63.5469V73.3906C125.992 74.0938 126.051 74.8424 126.168 75.6367C126.298 76.431 126.487 77.1146 126.734 77.6875V78H122.965C122.783 77.5833 122.639 77.0299 122.535 76.3398C122.431 75.6367 122.379 74.9857 122.379 74.3867ZM123.004 65.1875L123.043 67.7266H119.391C118.362 67.7266 117.444 67.8112 116.637 67.9805C115.829 68.1367 115.152 68.3776 114.605 68.7031C114.059 69.0286 113.642 69.4388 113.355 69.9336C113.069 70.4154 112.926 70.9818 112.926 71.6328C112.926 72.2969 113.076 72.9023 113.375 73.4492C113.674 73.9961 114.124 74.4323 114.723 74.7578C115.335 75.0703 116.083 75.2266 116.969 75.2266C118.076 75.2266 119.052 74.9922 119.898 74.5234C120.745 74.0547 121.415 73.4818 121.91 72.8047C122.418 72.1276 122.691 71.4701 122.73 70.832L124.273 72.5703C124.182 73.1172 123.935 73.7227 123.531 74.3867C123.128 75.0508 122.587 75.6888 121.91 76.3008C121.246 76.8997 120.452 77.401 119.527 77.8047C118.616 78.1953 117.587 78.3906 116.441 78.3906C115.009 78.3906 113.753 78.1107 112.672 77.5508C111.604 76.9909 110.771 76.2422 110.172 75.3047C109.586 74.3542 109.293 73.293 109.293 72.1211C109.293 70.9883 109.514 69.9922 109.957 69.1328C110.4 68.2604 111.038 67.5378 111.871 66.9648C112.704 66.3789 113.707 65.9362 114.879 65.6367C116.051 65.3372 117.359 65.1875 118.805 65.1875H123.004Z" fill="black"/>
<path d="M6.95801 11.4531H13.9404L21.875 36.1846L29.8096 11.4531H36.792L24.707 47H19.043L6.95801 11.4531ZM2.70996 11.4531H9.93652L11.2793 38.6992V47H2.70996V11.4531ZM33.8135 11.4531H41.0645V47H32.4707V38.6992L33.8135 11.4531ZM61.5967 40.5791V20.584H69.8486V47H62.1338L61.5967 40.5791ZM62.3779 35.208L64.5264 35.1592C64.5264 36.9333 64.3148 38.5771 63.8916 40.0908C63.4684 41.5882 62.8418 42.8903 62.0117 43.9971C61.1979 45.1038 60.1888 45.9665 58.9844 46.585C57.7962 47.1872 56.4209 47.4883 54.8584 47.4883C53.5563 47.4883 52.36 47.3092 51.2695 46.9512C50.1953 46.5768 49.2676 45.999 48.4863 45.2178C47.7051 44.4202 47.0947 43.403 46.6553 42.166C46.2321 40.9128 46.0205 39.4154 46.0205 37.6738V20.584H54.248V37.7227C54.248 38.3086 54.3213 38.8132 54.4678 39.2363C54.6143 39.6595 54.8258 40.0176 55.1025 40.3105C55.3792 40.5872 55.721 40.7988 56.1279 40.9453C56.5511 41.0755 57.0312 41.1406 57.5684 41.1406C58.8053 41.1406 59.7738 40.8802 60.4736 40.3594C61.1735 39.8385 61.6618 39.1305 61.9385 38.2354C62.2314 37.3402 62.3779 36.3311 62.3779 35.208ZM88.2324 39.5781C88.2324 39.1224 88.0778 38.7318 87.7686 38.4062C87.4756 38.0645 86.9548 37.7552 86.2061 37.4785C85.4574 37.1855 84.4076 36.8926 83.0566 36.5996C81.7708 36.3229 80.5583 35.9567 79.4189 35.501C78.2959 35.0452 77.3112 34.4919 76.4648 33.8408C75.6185 33.1898 74.9512 32.4167 74.4629 31.5215C73.9909 30.6263 73.7549 29.6009 73.7549 28.4453C73.7549 27.3223 73.9909 26.2643 74.4629 25.2715C74.9512 24.2624 75.6592 23.3753 76.5869 22.6104C77.5309 21.8291 78.6784 21.2188 80.0293 20.7793C81.3802 20.3236 82.9183 20.0957 84.6436 20.0957C87.0199 20.0957 89.0706 20.4619 90.7959 21.1943C92.5212 21.9105 93.8477 22.9196 94.7754 24.2217C95.7194 25.5075 96.1914 26.9967 96.1914 28.6895H87.9639C87.9639 28.0221 87.8499 27.4525 87.6221 26.9805C87.4105 26.5085 87.0605 26.1504 86.5723 25.9062C86.084 25.6458 85.4329 25.5156 84.6191 25.5156C84.0495 25.5156 83.5286 25.6214 83.0566 25.833C82.6009 26.0446 82.2347 26.3376 81.958 26.7119C81.6813 27.0863 81.543 27.5257 81.543 28.0303C81.543 28.3883 81.6243 28.7139 81.7871 29.0068C81.9661 29.2835 82.2347 29.5439 82.5928 29.7881C82.9508 30.016 83.4066 30.2275 83.96 30.4229C84.5133 30.6019 85.1807 30.7646 85.9619 30.9111C87.736 31.2367 89.3962 31.7005 90.9424 32.3027C92.4886 32.9049 93.7419 33.7594 94.7021 34.8662C95.6787 35.973 96.167 37.4622 96.167 39.334C96.167 40.5059 95.8984 41.5882 95.3613 42.5811C94.8242 43.5576 94.0511 44.4202 93.042 45.1689C92.0329 45.9014 90.8203 46.471 89.4043 46.8779C87.9883 47.2848 86.3932 47.4883 84.6191 47.4883C82.0964 47.4883 79.9642 47.0407 78.2227 46.1455C76.4811 45.234 75.1628 44.0947 74.2676 42.7275C73.3887 41.3441 72.9492 39.9443 72.9492 38.5283H80.6152C80.6478 39.3421 80.8431 40.0094 81.2012 40.5303C81.5755 41.0511 82.0719 41.4336 82.6904 41.6777C83.3089 41.9219 84.0251 42.0439 84.8389 42.0439C85.5876 42.0439 86.2061 41.9382 86.6943 41.7266C87.1989 41.515 87.5814 41.2301 87.8418 40.8721C88.1022 40.4977 88.2324 40.0664 88.2324 39.5781ZM109.253 11.4531L108.203 35.7451H101.514L100.464 11.4531H109.253ZM100.244 43.3135C100.244 42.1416 100.667 41.165 101.514 40.3838C102.36 39.5863 103.459 39.1875 104.81 39.1875C106.16 39.1875 107.251 39.5863 108.081 40.3838C108.927 41.165 109.351 42.1416 109.351 43.3135C109.351 44.4854 108.927 45.4701 108.081 46.2676C107.251 47.0488 106.16 47.4395 104.81 47.4395C103.459 47.4395 102.36 47.0488 101.514 46.2676C100.667 45.4701 100.244 44.4854 100.244 43.3135ZM125 41.1406C125.765 41.1406 126.416 41.0023 126.953 40.7256C127.507 40.4326 127.922 40.0257 128.198 39.5049C128.491 38.9678 128.63 38.3249 128.613 37.5762H136.353C136.369 39.5618 135.881 41.3034 134.888 42.8008C133.911 44.2819 132.576 45.4375 130.884 46.2676C129.207 47.0814 127.311 47.4883 125.195 47.4883C123.128 47.4883 121.322 47.1546 119.775 46.4873C118.229 45.8037 116.935 44.8597 115.894 43.6553C114.868 42.4346 114.095 41.0104 113.574 39.3828C113.07 37.7552 112.817 35.9893 112.817 34.085V33.5234C112.817 31.6191 113.07 29.8532 113.574 28.2256C114.095 26.5817 114.868 25.1576 115.894 23.9531C116.935 22.7324 118.221 21.7884 119.751 21.1211C121.297 20.4375 123.096 20.0957 125.146 20.0957C127.344 20.0957 129.281 20.5107 130.957 21.3408C132.65 22.1709 133.976 23.3753 134.937 24.9541C135.897 26.5329 136.369 28.4453 136.353 30.6914H128.613C128.63 29.8939 128.507 29.1777 128.247 28.543C127.987 27.9082 127.58 27.4036 127.026 27.0293C126.489 26.6387 125.798 26.4434 124.951 26.4434C124.105 26.4434 123.421 26.6305 122.9 27.0049C122.38 27.3792 121.981 27.9001 121.704 28.5674C121.444 29.2184 121.265 29.9671 121.167 30.8135C121.086 31.6598 121.045 32.5632 121.045 33.5234V34.085C121.045 35.0615 121.086 35.9811 121.167 36.8438C121.265 37.6901 121.452 38.4388 121.729 39.0898C122.005 39.7246 122.404 40.2292 122.925 40.6035C123.446 40.9616 124.137 41.1406 125 41.1406Z" fill="black"/>
</g>
<defs>
<filter id="filter0_d_1_7" x="0.709961" y="11.4531" width="137.667" height="72.9375" filterUnits="userSpaceOnUse" color-interpolation-filters="sRGB">
<feFlood flood-opacity="0" result="BackgroundImageFix"/>
<feColorMatrix in="SourceAlpha" type="matrix" values="0 0 0 0 0 0 0 0 0 0 0 0 0 0 0 0 0 0 127 0" result="hardAlpha"/>
<feOffset dy="4"/>
<feGaussianBlur stdDeviation="1"/>
<feComposite in2="hardAlpha" operator="out"/>
<feColorMatrix type="matrix" values="0 0 0 0 0 0 0 0 0 0 0 0 0 0 0 0 0 0 0.25 0"/>
<feBlend mode="normal" in2="BackgroundImageFix" result="effect1_dropShadow_1_7"/>
<feBlend mode="normal" in="SourceGraphic" in2="effect1_dropShadow_1_7" result="shape"/>
</filter>
</defs>
</svg>
